<?xml version="1.0" encoding="UTF-8"?>
<svg width="48px" height="55px" viewBox="0 0 48 55" version="1.1" xmlns="http://www.w3.org/2000/svg" xmlns:xlink="http://www.w3.org/1999/xlink">
    <title>form-5</title>
    <defs>
        <path d="M13.8276923,0 L13.8276923,3.55645161 L3.94153846,3.55645161 L3.39230769,9.87096774 C4.85692308,9.12096774 6.3,8.74596774 7.72153846,8.74596774 C12.2876923,8.74596774 14.5707692,11.141129 14.5707692,15.9314516 C14.5707692,18.641129 13.9407692,20.7217742 12.6807692,22.1733871 C11.4207692,23.625 9.63846154,24.3508065 7.33384615,24.3508065 C6.36461538,24.3508065 5.26615385,24.2479839 4.03846154,24.0423387 C2.81076923,23.8366935 1.83076923,23.6370968 1.09846154,23.4435484 L0,23.1169355 L0.387692308,20.0685484 C2.92923077,20.5524194 5.10461538,20.7943548 6.91384615,20.7943548 C8.16307692,20.7943548 9.13230769,20.4072581 9.82153846,19.6330645 C10.5107692,18.858871 10.8553846,17.7580645 10.8553846,16.3306452 C10.8553846,14.9032258 10.5538462,13.875 9.95076923,13.2459677 C9.34769231,12.6169355 8.56153846,12.3024194 7.59230769,12.3024194 C5.84769231,12.3024194 4.42615385,12.5443548 3.32769231,13.0282258 L2.74615385,13.2822581 L0.484615385,12.7379032 L1.06615385,0 L13.8276923,0 Z" id="path-1"></path>
    </defs>
    <g id="form-5" stroke="none" stroke-width="1" fill="none" fill-rule="evenodd">
        <g transform="translate(7, 12.32)">
            <line x1="0" y1="29.6219758" x2="35" y2="29.6219758" id="Line" stroke="#8BBB1B" stroke-width="4" stroke-linecap="square"></line>
            <g id="5" transform="translate(10.8419, 0)" fill="#8BBB1B" fill-rule="nonzero">
                <g id="Path">
                    <use xlink:href="#path-1"></use>
                    <use xlink:href="#path-1"></use>
                </g>
            </g>
        </g>
    </g>
</svg>