<?xml version="1.0" encoding="UTF-8"?>
<svg width="48px" height="55px" viewBox="0 0 48 55" version="1.1" xmlns="http://www.w3.org/2000/svg" xmlns:xlink="http://www.w3.org/1999/xlink">
    <title>form-!</title>
    <g id="form-!" stroke="none" stroke-width="1" fill="none" fill-rule="evenodd">
        <g transform="translate(7, 12.2106)">
            <line x1="0" y1="29.7103653" x2="35" y2="29.7103653" id="Line" stroke="#FFC104" stroke-width="4" stroke-linecap="square"></line>
            <g id=":-)" transform="translate(6.3522, 0)" fill="#FFC104" fill-rule="nonzero">
                <path d="M4.77989784,16.2919518 L4.77989784,20.3377865 L0,20.3377865 L0,16.2919518 L4.77989784,16.2919518 Z M0,10.1688932 L0,6.12305854 L4.77989784,6.12305854 L4.77989784,10.1688932 L0,10.1688932 Z" id="Shape"></path>
                <polygon id="Path" points="7.84029447 10.7526882 16.8952825 10.7526882 16.8952825 14.4183773 7.84029447 14.4183773"></polygon>
                <path d="M22.63747,24.6280004 L21.5174279,25.9449332 L18.1888522,25.9449332 C19.5770733,23.7907751 20.5446214,22.0258137 21.0914964,20.6500489 C22.027494,18.3239202 22.4954928,15.77604 22.4954928,13.0064082 C22.4954928,11.2323956 22.3272236,9.59414938 21.9906851,8.09166938 C21.4753606,5.80174505 20.5551382,3.61138264 19.230018,1.52058217 L18.2677284,0 L21.659405,0 C23.2579627,1.91882988 24.4726563,3.71094457 25.3034856,5.37634409 C26.5339543,7.82013685 27.1491887,10.2820318 27.1491887,12.7620289 C27.1491887,15.4864053 26.4182692,18.2560371 24.9564303,21.0709243 C24.1361178,22.645813 23.363131,23.831505 22.63747,24.6280004 Z" id="Path"></path>
            </g>
        </g>
    </g>
</svg>