<?xml version="1.0" encoding="UTF-8"?>
<svg width="48px" height="55px" viewBox="0 0 48 55" version="1.1" xmlns="http://www.w3.org/2000/svg" xmlns:xlink="http://www.w3.org/1999/xlink">
    <title>form-6</title>
    <defs>
        <path d="M14.5061538,3.97532829 C12.4169231,3.64106645 10.5215385,3.47393554 8.82,3.47393554 C7.11846154,3.47393554 5.84769231,4.05889375 5.00769231,5.22881019 C4.16769231,6.39872662 3.73692308,8.03422205 3.71538462,10.1352965 L4.45846154,9.84878631 C6.00923077,9.29964186 7.31230769,9.02506964 8.36769231,9.02506964 C13.1923077,9.02506964 15.6046154,11.5320334 15.6046154,16.545961 C15.6046154,19.1245523 14.9369231,21.0823717 13.6015385,22.419419 C12.2661538,23.7564664 10.3169231,24.4249901 7.75384615,24.4249901 C5.19076923,24.4249901 3.25769231,23.3684839 1.95461538,21.2554715 C0.651538462,19.1424592 0,16.1281337 0,12.212495 C0,4.07083168 2.88615385,0 8.65846154,0 C10.2738462,0 12.0184615,0.21488261 13.8923077,0.644647831 L14.8292308,0.859530442 L14.5061538,3.97532829 Z M4.29692308,13.3227218 L3.68307692,13.5734182 C3.72615385,18.4918424 5.14769231,20.9510545 7.94769231,20.9510545 C9.21846154,20.9510545 10.1930769,20.569041 10.8715385,19.8050139 C11.55,19.0409869 11.8892308,17.9785117 11.8892308,16.6175885 C11.8892308,15.2566653 11.5553846,14.2359729 10.8876923,13.5555113 C10.22,12.8750497 9.28846154,12.5348189 8.09307692,12.5348189 C6.89769231,12.5348189 5.63230769,12.7974532 4.29692308,13.3227218 Z" id="path-1"></path>
    </defs>
    <g id="form-6" stroke="none" stroke-width="1" fill="none" fill-rule="evenodd">
        <g transform="translate(7, 12.792)">
            <line x1="0" y1="29.6269399" x2="35" y2="29.6269399" id="Line" stroke="#FFC104" stroke-width="4" stroke-linecap="square"></line>
            <g id="6" transform="translate(10.3573, 0)" fill="#FFC104" fill-rule="nonzero">
                <g id="Shape">
                    <use xlink:href="#path-1"></use>
                    <use xlink:href="#path-1"></use>
                </g>
            </g>
        </g>
    </g>
</svg>