<?xml version="1.0" encoding="UTF-8"?>
<svg width="48px" height="55px" viewBox="0 0 48 55" version="1.1" xmlns="http://www.w3.org/2000/svg" xmlns:xlink="http://www.w3.org/1999/xlink">
    <title>form-2</title>
    <defs>
        <path d="M13.7307692,24.0310386 L0,24.0310386 L0,20.6287306 L5.26615385,14.6120175 C6.86,12.7974532 7.98,11.3768404 8.62615385,10.3501791 C9.27230769,9.32351771 9.59538462,8.195384 9.59538462,6.96577795 C9.59538462,5.73617191 9.28307692,4.85873458 8.65846154,4.33346598 C8.03384615,3.80819737 7.01076923,3.54556307 5.58923077,3.54556307 C4.25384615,3.54556307 2.77846154,3.71269399 1.16307692,4.04695583 L0.355384615,4.1902109 L0.129230769,1.03859928 C2.21846154,0.346199761 4.38307692,0 6.62307692,0 C11.0815385,0 13.3107692,2.1965778 13.3107692,6.58973339 C13.3107692,8.30879427 12.9715385,9.80103462 12.2930769,11.0664544 C11.6146154,12.3318743 10.4030769,13.8599284 8.65846154,15.6506168 L4.10307692,20.5571031 L13.7307692,20.5571031 L13.7307692,24.0310386 Z" id="path-1"></path>
    </defs>
    <g id="form-2" stroke="none" stroke-width="1" fill="none" fill-rule="evenodd">
        <g transform="translate(7, 13)">
            <line x1="0" y1="29.6269399" x2="35" y2="29.6269399" id="Line" stroke="#8BBB1B" stroke-width="4" stroke-linecap="square"></line>
            <g id="2" transform="translate(11.1973, 0)" fill="#8BBB1B" fill-rule="nonzero">
                <g id="Path">
                    <use xlink:href="#path-1"></use>
                    <use xlink:href="#path-1"></use>
                </g>
            </g>
        </g>
    </g>
</svg>