<?xml version="1.0" encoding="UTF-8"?>
<svg width="48px" height="55px" viewBox="0 0 48 55" version="1.1" xmlns="http://www.w3.org/2000/svg" xmlns:xlink="http://www.w3.org/1999/xlink">
    <title>form-3</title>
    <g id="form-3" stroke="none" stroke-width="1" fill="none" fill-rule="evenodd">
        <g transform="translate(7, 12.792)">
            <line x1="0" y1="29.6269399" x2="35" y2="29.6269399" id="Line" stroke="#8BBB1B" stroke-width="4" stroke-linecap="square"></line>
            <g id="3" transform="translate(10.9388, 0)" fill="#8BBB1B" fill-rule="nonzero">
                <g id="Path">
                    <path d="M0.226153846,1.14604059 C2.22923077,0.38201353 4.42615385,0 6.81692308,0 C9.20769231,0 10.9469231,0.507361719 12.0346154,1.52208516 C13.1223077,2.5368086 13.6661538,4.14245921 13.6661538,6.33903701 C13.6661538,7.29407083 13.4992308,8.15360127 13.1653846,8.91762833 C12.8315385,9.68165539 12.4923077,10.2367688 12.1476923,10.5829686 C11.8030769,10.9291683 11.3723077,11.293275 10.8553846,11.6752885 C11.9969231,12.2721846 12.8207692,12.9228014 13.3269231,13.6271389 C13.8330769,14.3314763 14.0861538,15.471548 14.0861538,17.0473538 C14.0861538,19.5543175 13.5207692,21.4106645 12.39,22.6163947 C11.2592308,23.822125 9.45538462,24.4249901 6.97846154,24.4249901 C6.00923077,24.4249901 4.94307692,24.3354556 3.78,24.1563868 C2.61692308,23.9773179 1.69076923,23.7922801 1.00153846,23.6012734 L0,23.3147632 L0.226153846,20.2347791 C2.59538462,20.7122961 4.68461538,20.9510545 6.49384615,20.9510545 C9.07846154,20.9271787 10.3707692,19.6617589 10.3707692,17.1547951 C10.3707692,16.0087545 10.0369231,15.1372861 9.36923077,14.54039 C8.70153846,13.9434938 7.81846154,13.6331078 6.72,13.609232 L2.42307692,13.609232 L2.42307692,10.2785515 L6.72,10.2785515 C7.51692308,10.2785515 8.25461538,9.91444489 8.93307692,9.1862316 C9.61153846,8.4580183 9.95076923,7.57461202 9.95076923,6.53601273 C9.95076923,5.49741345 9.65461538,4.72741743 9.06230769,4.22602467 C8.47,3.72463191 7.65692308,3.47393554 6.62307692,3.47393554 C4.92153846,3.47393554 3.16615385,3.64106645 1.35692308,3.97532829 L0.516923077,4.15439713 L0.226153846,1.14604059 Z"></path>
                </g>
            </g>
        </g>
    </g>
</svg>