<?xml version="1.0" encoding="UTF-8"?>
<svg width="48px" height="55px" viewBox="0 0 48 55" version="1.1" xmlns="http://www.w3.org/2000/svg" xmlns:xlink="http://www.w3.org/1999/xlink">
    <title>form-9</title>
    <defs>
        <path d="M6.91384615,20.9510545 C10.1876923,20.9510545 11.8461538,18.6589733 11.8892308,14.074811 L11.1138462,14.3613211 C9.47692308,14.9820931 8.16307692,15.2924791 7.17230769,15.2924791 C4.84615385,15.2924791 3.06923077,14.6776761 1.84153846,13.44807 C0.613846154,12.218464 0,10.3740549 0,7.91484282 C0,5.45563072 0.683846154,3.52168723 2.05153846,2.11301234 C3.41923077,0.704337445 5.27692308,0 7.62461538,0 C10.3169231,0 12.32,1.06247513 13.6338462,3.18742539 C14.9476923,5.31237565 15.6046154,8.45204934 15.6046154,12.6064465 C15.6046154,16.7608436 14.8669231,19.7692002 13.3915385,21.6315161 C11.9161538,23.4938321 9.75692308,24.4249901 6.91384615,24.4249901 C5.29846154,24.4249901 3.55384615,24.2101074 1.68,23.7803422 L0.743076923,23.5654596 L1.06615385,20.4496618 C3.15538462,20.7839236 5.10461538,20.9510545 6.91384615,20.9510545 Z M7.46307692,11.7827298 C8.69076923,11.7827298 9.95076923,11.5200955 11.2430769,10.9948269 L11.9215385,10.7441305 C11.8784615,5.89733386 10.4461538,3.47393554 7.62461538,3.47393554 C6.39692308,3.47393554 5.43846154,3.86788699 4.74923077,4.65578989 C4.06,5.4436928 3.71538462,6.51810585 3.71538462,7.87902905 C3.71538462,10.4814962 4.96461538,11.7827298 7.46307692,11.7827298 Z" id="path-1"></path>
    </defs>
    <g id="form-9" stroke="none" stroke-width="1" fill="none" fill-rule="evenodd">
        <g transform="translate(6, 11.792)">
            <line x1="0" y1="30.4249901" x2="35" y2="30.4249901" id="Line" stroke="#FFC104" stroke-width="4" stroke-linecap="square"></line>
            <g id="9" transform="translate(10.1312, 0)" fill="#FFC104" fill-rule="nonzero" opacity="0.900000036">
                <g id="Shape">
                    <use xlink:href="#path-1"></use>
                    <use xlink:href="#path-1"></use>
                </g>
            </g>
        </g>
    </g>
</svg>