<?xml version="1.0" encoding="UTF-8"?>
<svg width="48px" height="55px" viewBox="0 0 48 55" version="1.1" xmlns="http://www.w3.org/2000/svg" xmlns:xlink="http://www.w3.org/1999/xlink">
    <title>form-8</title>
    <defs>
        <path d="M2.39076923,1.64743335 C3.76923077,0.549144449 5.64307692,0 8.01230769,0 C10.3815385,0 12.2715385,0.543175487 13.6823077,1.62952646 C15.0930769,2.71587744 15.7984615,4.27377636 15.7984615,6.30322324 C15.7984615,7.73577398 15.5992308,8.81615599 15.2007692,9.54436928 C14.8023077,10.2725826 14.0538462,11.0187027 12.9553846,11.7827298 C14.0538462,12.5706327 14.8561538,13.3764425 15.3623077,14.2001592 C15.8684615,15.0238758 16.1215385,16.1639475 16.1215385,17.6203741 C16.1215385,20.0079586 15.3784615,21.7389574 13.8923077,22.8133705 C12.4061538,23.8877835 10.4461538,24.4249901 8.01230769,24.4249901 C2.67076923,24.4249901 0,22.2881019 0,18.0143255 C0,16.4146439 0.247692308,15.1850378 0.743076923,14.3255074 C1.23846154,13.4659769 2.02461538,12.6183844 3.10153846,11.7827298 C2.08923077,11.0425786 1.37846154,10.2725826 0.969230769,9.47274174 C0.56,8.67290092 0.355384615,7.60445682 0.355384615,6.26740947 C0.355384615,4.26183844 1.03384615,2.7218464 2.39076923,1.64743335 Z M3.84461538,17.1547951 C3.84461538,19.6140072 5.25,20.8436132 8.06076923,20.8436132 C10.8715385,20.8436132 12.2769231,19.5901313 12.2769231,17.0831675 C12.2769231,15.4357342 11.3723077,14.3016315 9.56307692,13.6808595 L6.46153846,13.6808595 C4.71692308,14.3016315 3.84461538,15.45961 3.84461538,17.1547951 Z M11.9538462,6.87624353 C11.9538462,4.67966574 10.6615385,3.58137684 8.07692308,3.58137684 C5.49230769,3.58137684 4.2,4.67966574 4.2,6.87624353 C4.2,8.30879427 4.95384615,9.44289694 6.46153846,10.2785515 L9.56307692,10.2785515 C11.1569231,9.44289694 11.9538462,8.30879427 11.9538462,6.87624353 Z" id="path-1"></path>
    </defs>
    <g id="form-8" stroke="none" stroke-width="1" fill="none" fill-rule="evenodd">
        <g transform="translate(7, 12.792)">
            <line x1="0" y1="29.6269399" x2="35" y2="29.6269399" id="Line" stroke="#8BBB1B" stroke-width="4" stroke-linecap="square"></line>
            <g id="8" transform="translate(10.0019, 0)" fill="#8BBB1B" fill-rule="nonzero" opacity="0.900000036">
                <g id="Shape">
                    <use xlink:href="#path-1"></use>
                    <use xlink:href="#path-1"></use>
                </g>
            </g>
        </g>
    </g>
</svg>