<?xml version="1.0" encoding="UTF-8"?>
<svg width="399px" height="351px" viewBox="0 0 399 351" version="1.1" xmlns="http://www.w3.org/2000/svg" xmlns:xlink="http://www.w3.org/1999/xlink">
    <title>no-cookies</title>
    <g id="Page-1" stroke="none" stroke-width="1" fill="none" fill-rule="evenodd">
        <g id="no-cookies" fill-rule="nonzero">
            <polygon id="Path" fill="#F2F2F2" points="321.339571 342 53 85.9100772 94.9611737 0 390 339.896722"></polygon>
            <ellipse id="Oval" fill="#F2F2F2" cx="200" cy="56" rx="16" ry="17"></ellipse>
            <ellipse id="Oval" fill="#3F3D56" cx="270.5" cy="90" rx="5.5" ry="6"></ellipse>
            <ellipse id="Oval" fill="#3F3D56" cx="270.5" cy="136" rx="5.5" ry="6"></ellipse>
            <ellipse id="Oval" fill="#3F3D56" cx="325.5" cy="147" rx="5.5" ry="6"></ellipse>
            <ellipse id="Oval" fill="#F2F2F2" cx="199.5" cy="340" rx="199.5" ry="11"></ellipse>
            <path d="M315.108018,171.51242 C312.849354,167.582664 304.959739,167.684101 304.959739,167.684101 C297.776478,178.942284 280.509557,166.983375 280.509557,166.983375 C267.684875,173.035672 259.859929,153.748454 259.859929,153.748454 C242.603536,151.026556 245.269519,131.908976 245.269519,131.908976 C236.684187,130.090714 239.093144,113.71707 239.093144,113.71707 C239.093144,113.71707 243.85697,109.595572 241.512682,106.580505 C240.022277,104.663674 239.929793,99.1624558 240.059926,95.406974 C228.856562,91.812926 217.209966,89.9908046 205.49997,90 C140.054251,90 87,145.964441 87,215.000017 C87,284.035594 140.054251,340 205.49997,340 C270.94569,340 324,284.035594 324,215.000017 C324.01416,200.002121 321.463645,185.124497 316.470895,171.081709 C315.862607,171.805817 315.391051,172.004852 315.108018,171.51242 Z" id="Path" fill="#3F3D56"></path>
            <path d="M315.108018,171.51242 C312.849354,167.582664 304.959739,167.684101 304.959739,167.684101 C297.776478,178.942284 280.509557,166.983375 280.509557,166.983375 C267.684875,173.035672 259.859929,153.748454 259.859929,153.748454 C242.603536,151.026556 245.269519,131.908976 245.269519,131.908976 C236.684187,130.090714 239.093144,113.71707 239.093144,113.71707 C239.093144,113.71707 243.85697,109.595572 241.512682,106.580505 C240.022277,104.663674 239.929793,99.1624558 240.059926,95.406974 C228.856562,91.812926 217.209966,89.9908046 205.49997,90 C140.054251,90 87,145.964441 87,215.000017 C87,284.035594 140.054251,340 205.49997,340 C270.94569,340 324,284.035594 324,215.000017 C324.01416,200.002121 321.463645,185.124497 316.470895,171.081709 C315.862607,171.805817 315.391051,172.004852 315.108018,171.51242 Z" id="Path" fill="#000000" opacity="0.1"></path>
            <path d="M309.520726,172.273756 C307.366894,168.548352 299.843466,168.6445 299.843466,168.6445 C292.993607,179.317258 276.5281,167.980215 276.5281,167.980215 C264.298655,173.717788 256.836897,155.433506 256.836897,155.433506 C240.381433,152.853148 242.923675,134.729687 242.923675,134.729687 C234.736818,133.005977 237.033968,117.483765 237.033968,117.483765 C237.033968,117.483765 241.576689,113.576586 239.341205,110.7183 C237.919977,108.901147 237.831786,103.685971 237.955878,100.125813 C227.272502,96.7186528 216.166466,94.991281 204.999972,95 C142.591816,95 92,148.054289 92,213.500017 C92,278.945745 142.591816,332 204.999972,332 C267.408128,332 318,278.945739 318,213.500017 C318.013503,199.282006 315.581366,185.178015 310.820347,171.865447 C310.240293,172.551896 309.790621,172.740584 309.520726,172.273756 Z" id="Path" fill="#3F3D56"></path>
            <path d="M191.308936,164.144161 C191.308936,164.144161 171.817094,151.091781 153.211241,164.144161 C146.69919,168.71249 143.443167,175.222362 141.961675,181.755077 C139.327555,193.370384 142.216315,205.615712 149.26016,214.978359 L191.351732,270.926296 C194.296921,274.903351 199.141909,276.761198 203.828219,275.710498 C203.919327,275.689028 204.011041,275.666632 204.10336,275.643311 C207.465148,274.772855 210.335715,272.479345 212.035594,269.30566 L241.308632,215.211829 C246.724208,205.36079 248.944065,193.921974 247.632474,182.625367 C246.259727,171.500668 241.182956,159.773925 226.748653,155.753323 C226.748653,155.753328 209.91479,148.294828 191.308936,164.144161 Z" id="Path" fill="#B7E1FE"></path>
            <path d="M191.308936,164.144161 C191.308936,164.144161 171.817094,151.091781 153.211241,164.144161 C146.69919,168.71249 143.443167,175.222362 141.961675,181.755077 C139.327555,193.370384 142.216315,205.615712 149.26016,214.978359 L191.351732,270.926296 C194.296921,274.903351 199.141909,276.761198 203.828219,275.710498 C203.919327,275.689028 204.011041,275.666632 204.10336,275.643311 C207.465148,274.772855 210.335715,272.479345 212.035594,269.30566 L241.308632,215.211829 C246.724208,205.36079 248.944065,193.921974 247.632474,182.625367 C246.259727,171.500668 241.182956,159.773925 226.748653,155.753323 C226.748653,155.753328 209.91479,148.294828 191.308936,164.144161 Z" id="Path" fill="#000000" opacity="0.1"></path>
            <path d="M191.487876,167.478951 C191.487876,167.478951 173.089029,155.282471 155.526495,167.478951 C149.37961,171.747724 146.306168,177.830719 144.907749,183.935059 C142.421337,194.788702 145.14811,206.231059 151.796971,214.979762 L191.52827,267.258981 C194.308304,270.975255 198.881612,272.711283 203.305142,271.729483 C203.391156,271.70942 203.477726,271.688493 203.564852,271.666703 C206.738128,270.853324 209.447729,268.710209 211.052289,265.744636 L238.68385,215.19794 C243.795748,205.992871 245.891127,195.304142 244.653083,184.748297 C243.357311,174.353086 238.56522,163.395308 224.940316,159.638356 C224.940316,159.638356 209.050405,152.668941 191.487876,167.478951 Z" id="Path" fill="#B7E1FE"></path>
            <path d="M193.030377,188.583529 C193.030377,188.583529 184.101358,182.68597 175.578207,188.583529 C172.931675,190.44243 171.084046,193.295378 170.424904,196.540812 C169.268858,201.812035 170.500602,207.342512 173.768265,211.552354 C173.768265,211.552354 196.627968,239.490219 198.765344,238.993453 C198.807081,238.983753 198.849094,238.973634 198.891382,238.963095 C200.431399,238.579248 215.934753,211.657854 215.934753,211.657854 C218.415572,207.206779 219.432466,202.038288 218.831641,196.934051 C218.202801,191.907466 215.877181,186.608899 209.264975,184.792239 C209.264955,184.792213 201.553528,181.422182 193.030377,188.583529 Z" id="Path" fill="#000000" opacity="0.1"></path>
            <polyline id="Path" fill="#000000" opacity="0.1" points="136 233 138.500082 237.386184 143.499753 246.158032 145.166639 252.298273 141.833361 257.561486 145.999835 268.087911 147.666722 274.228152 144.333443 277.736787 151 283"></polyline>
            <polyline id="Path" fill="#000000" opacity="0.1" points="258.666831 195 258.666831 201.984365 254.5 213.333506 252 219.444502 256.166831 227.301719 257.833663 232.539863 264.5 235.158936 267 239.524229 267 250"></polyline>
            <path d="M301,202 L294.333335,206.374999 C294.333335,206.374999 291,208.125 291,209 L291,216" id="Path" fill="#000000" opacity="0.1"></path>
            <polyline id="Path" fill="#000000" opacity="0.1" points="271 178 272 186.823252 271 193"></polyline>
            <polyline id="Path" fill="#000000" opacity="0.1" points="278 256 272.923 263.749617 267 268.916369 267 272.3607 270.3845 276.666496 270.3845 281.833248 267.845999 287"></polyline>
            <polyline id="Path" fill="#000000" opacity="0.1" points="231 107 222.66674 107 215.999835 112.999898 205.166548 118.999797 200.166493 123.285729 200.166493 125.000203 189.333205 131.000102 186 137"></polyline>
            <path d="M141,121 L133.363637,136.789476 L130.818179,142.929825 L124.878786,150.824561 C124.878786,150.824561 120.636363,158.719296 119.787876,159.596492 C118.939388,160.473688 113,162.228069 113,162.228069 L121.484846,171" id="Path" fill="#000000" opacity="0.1"></path>
            <polyline id="Path" fill="#000000" opacity="0.1" points="108.077 183 106.3845 194.311661 108.077 201.272962 108.077 213.454592 103 236.077915 108.077 242.168731 114 250"></polyline>
            <polyline id="Path" fill="#000000" opacity="0.1" points="119 189 123.909135 191.571429 127.18173 202.714116 133.727405 200.999661 137 207"></polyline>
            <polyline id="Path" fill="#000000" opacity="0.1" points="211 302 224.575834 299.999802 230.515167 293 239 293"></polyline>
            <polyline id="Path" fill="#000000" opacity="0.1" points="131 283 136.280042 288.782545 145.079937 291.260848 151.240334 292.913214 153 302"></polyline>
            <polyline id="Path" fill="#000000" opacity="0.1" points="228 254 233.895131 249.416485 236.421473 242.082971 241.474158 241.166485 244 232"></polyline>
            <path d="M80.1970765,34 L93.8029235,34 C102.748322,34 110,41.8822556 110,51.6055105 L110,84 L64,84 L64,51.6055263 C64,46.9362518 65.7064673,42.4582173 68.7440088,39.1565402 C71.7815502,35.8548631 75.9013422,34 80.1970765,34 Z" id="Path" fill="#2F2E41"></path>
            <path d="M95.0635129,309 C95.0635129,309 93.6370146,318.5 91.2595174,320 C88.8820202,321.5 103.622503,325 103.622503,325 L106,310 L95.0635129,309 Z" id="Path" fill="#FBBEBE"></path>
            <path d="M112.587302,196 L118,202.701452 L115.539683,225.898785 L113.571429,271.777955 C113.571429,271.777955 117.507937,311.471169 113.571429,312.502162 C109.634921,313.533154 91.9206349,313.017658 92.4126984,310.440177 C92.9047619,307.862695 93.3968254,305.80071 94.3809524,302.192236 C95.3650794,298.583762 93.3968254,285.696355 93.3968254,285.696355 L95.8571429,271.262459 L87,208.887407 L112.587302,196 Z" id="Path" fill="#2F2E41"></path>
            <path d="M94.2304746,317.474823 C94.2304746,317.474823 88.8361088,316.406472 88.3457119,317.474823 C87.855315,318.543173 78.5377741,329.760856 77.0665834,329.760856 C75.5953928,329.760856 64.8066612,340.444364 76.0857897,340.978539 C87.3649181,341.512715 106,331.897558 106,331.897558 C106,331.897558 103.257573,318.304675 103.402794,318.958099 C103.548016,319.611524 94.2304746,320.145699 94.2304746,317.474823 Z" id="Path" fill="#2F2E41"></path>
            <path d="M89,294.415584 C89,294.415584 102.72549,310.720779 103.215686,312.298701 C103.705882,313.876623 111.058824,312.298701 111.058824,312.298701 L114,301.779221 L111.54902,298.097403 L97.8235294,286 L89,294.415584 Z" id="Path" fill="#FBBEBE"></path>
            <path d="M108.518519,306.991609 L101,314.06968 C101,314.06968 110.592593,328.773306 110.592593,330.329141 C110.592593,331.884977 111.111111,344.850273 116.296296,342.775825 C121.481481,340.701378 122,319.956904 122,319.956904 C122,319.956904 121.481481,298.693819 118.37037,297.137984 C115.259259,295.582148 108.440492,296.073699 108.440492,296.073699 C108.440492,296.073699 112.666667,306.472997 108.518519,306.991609 Z" id="Path" fill="#2F2E41"></path>
            <path d="M67.932237,149.158028 C67.932237,149.158028 65.4779349,157.502712 64.9870745,159.588884 C64.4962141,161.675055 61.5510515,167.412025 61.5510515,176.278252 C61.5510515,185.144479 62.5327724,195.575335 61.5510515,196.61842 C60.5693307,197.661506 44.8617972,256.074296 51.7338431,262.33281 C58.605889,268.591323 81.1854684,289.453034 82.6580496,292.060748 C84.1306309,294.668462 84.6214913,300.926975 87.5666539,299.883889 C90.5118164,298.840804 101.801606,288.409948 102.292467,286.323777 C102.783327,284.237606 95.911281,280.586807 95.911281,280.586807 C95.911281,280.586807 82.1671892,259.203553 78.7311663,259.725096 C75.2951433,260.246639 75.7860037,257.117382 76.2768642,255.552754 C76.7677246,253.988125 77.7494454,252.94504 76.2768642,252.94504 C74.8042829,252.94504 75.7860037,248.772698 76.2768642,246.686527 C76.7677246,244.600355 88.0575143,216.437046 88.0575143,216.437046 L118,202.355391 C118,202.355391 116.527419,164.282768 105.728489,153.851913 L103.274187,147.5934 C103.274187,147.5934 75.7860037,145.507229 67.932237,149.158028 Z" id="Path" fill="#2F2E41"></path>
            <path d="M79.3253012,68 C79.3253012,68 81.7951807,86.2394366 75.8674699,87.2816901 C69.939759,88.3239437 65,87.8028169 65,88.3239437 C65,88.8450704 79.8192771,105 79.8192771,105 L93.6506024,103.957746 L106,89.8873239 C106,89.8873239 94.6385542,87.8028169 94.6385542,80.5070423 C94.6385542,73.2112676 94.1445783,68 94.1445783,68 L79.3253012,68 Z" id="Path" fill="#FBBEBE"></path>
            <path d="M79.3253012,68 C79.3253012,68 81.7951807,86.2394366 75.8674699,87.2816901 C69.939759,88.3239437 65,87.8028169 65,88.3239437 C65,88.8450704 79.8192771,105 79.8192771,105 L93.6506024,103.957746 L106,89.8873239 C106,89.8873239 94.6385542,87.8028169 94.6385542,80.5070423 C94.6385542,73.2112676 94.1445783,68 94.1445783,68 L79.3253012,68 Z" id="Path" fill="#000000" opacity="0.1"></path>
            <ellipse id="Oval" fill="#FBBEBE" cx="88" cy="59.5" rx="15" ry="15.5"></ellipse>
            <path d="M73.4724717,86 C73.4724717,86 54.5833908,88.5954198 53.1303846,95.3435115 C51.6773784,102.091603 62.8170928,144.137405 64.270099,147.770992 C65.7231052,151.40458 65.2387698,154 65.2387698,154 C69.6726558,150.446072 75.3240675,149.121131 80.7375028,150.366412 C89.9398756,152.442748 103.016932,151.40458 103.016932,151.40458 C103.016932,151.40458 107.37595,132.198473 108.344621,130.122137 C109.313292,128.045802 113.187975,116.625954 113.187975,113.51145 C113.187975,110.396947 119,97.4198473 119,97.4198473 C119,97.4198473 116.093988,88.0763359 105.438609,88.5954198 C105.438609,88.5954198 100.790834,86.3659231 99.4822033,87.9997554 C98.1735726,89.6335878 90.9085464,96.9007634 81.7061736,93.7862595 C72.5038009,90.6717557 73.4724717,86 73.4724717,86 Z" id="Path" fill="#FF6584"></path>
            <path d="M58.6604176,95 L53.056618,95 L50,135.279211 C50,135.279211 61.2075992,138.338392 62.7359082,136.298938 C64.2642172,134.259484 58.6604176,95 58.6604176,95 Z" id="Path" fill="#FF6584"></path>
            <path d="M110,93 L119.577632,95.6595745 C119.577632,95.6595745 126.634835,122.787234 127.138921,123.319149 C127.643007,123.851064 128.147093,127.042553 128.147093,127.042553 C128.147093,127.042553 128.147093,127.574468 129.155265,129.170213 C130.163437,130.765957 131.675695,129.702128 130.667523,131.829787 C129.659351,133.957447 128.147093,132.893617 129.155265,135.021277 C130.163437,137.148936 129.659351,143 129.659351,143 C129.659351,143 127.138921,132.893617 118.065375,135.553191 L112.016344,106.829787 L110,93 Z" id="Path" fill="#FF6584"></path>
            <polygon id="Path" fill="#2F2E41" points="99.1082496 55 76.188842 55 71 42 103 42"></polygon>
            <ellipse id="Oval" fill="#FFB9B9" transform="translate(71.5361, 61.8187) rotate(-16.1601) translate(-71.5361, -61.8187)" cx="71.5360921" cy="61.8187472" rx="1.20047363" ry="3.34013302"></ellipse>
            <ellipse id="Oval" fill="#FFB9B9" transform="translate(103.376, 61.8188) rotate(-73.8399) translate(-103.376, -61.8188)" cx="103.375977" cy="61.8187731" rx="3.34013302" ry="1.20047363"></ellipse>
            <ellipse id="Oval" fill="#3F3D56" cx="100.5" cy="121" rx="8.5" ry="9"></ellipse>
            <ellipse id="Oval" fill="#000000" opacity="0.1" cx="100.5" cy="121" rx="8.5" ry="9"></ellipse>
            <circle id="Oval" fill="#3F3D56" cx="101" cy="121" r="8"></circle>
            <path d="M100.170089,116.080934 C100.170089,116.080934 98.1656121,114.690129 96.2522526,116.080934 C95.6581324,116.519319 95.2433572,117.192131 95.0953851,117.957505 C94.8358669,119.200623 95.1123818,120.504881 95.8459385,121.497693 L100.17449,127.459358 C100.477361,127.883143 100.975602,128.081111 101.457525,127.969152 L101.485821,127.961994 C101.831536,127.86924 102.126735,127.624848 102.301545,127.286668 L105.31188,121.522573 C105.868802,120.472873 106.097085,119.253981 105.962204,118.050243 C105.898612,116.685987 105.028276,115.525571 103.814587,115.18683 C103.814587,115.18683 102.08343,114.392072 100.170089,116.080934 Z" id="Path" fill="#000000" opacity="0.1"></path>
            <path d="M99.7000804,116.997773 C99.7000804,116.997773 97.877831,115.713933 96.1384119,116.997773 C95.5983023,117.402437 95.2212341,118.023495 95.0867143,118.729994 C94.8507879,119.877486 95.1021643,121.081414 95.7690334,121.997855 L99.7040818,127.500932 C99.9794168,127.892124 100.432364,128.07487 100.87048,127.971527 L100.896204,127.964921 C101.210489,127.879301 101.478851,127.653709 101.637768,127.341544 L104.374441,122.020843 C104.880731,121.051889 105.088259,119.926759 104.96564,118.815618 C104.90783,117.556303 104.116615,116.485149 103.013258,116.172467 C103.013258,116.172467 101.4395,115.438828 99.7000804,116.997773 Z" id="Path" fill="#B7E1FE"></path>
            <path d="M100.350056,119.416515 C99.8027348,119.109929 99.1165328,119.109929 98.5692114,119.416515 C98.2991567,119.585513 98.1106221,119.844881 98.0433603,120.139931 C97.925392,120.61915 98.0510786,121.12194 98.3845146,121.504668 C98.3845146,121.504668 100.717145,124.044567 100.935247,123.999405 L100.948105,123.996648 C101.105254,123.961749 102.687219,121.514257 102.687219,121.514257 C102.940365,121.1096 103.04413,120.639721 102.98282,120.175683 C102.953917,119.649763 102.558307,119.202423 102.006626,119.071841 C101.427545,118.9038 100.795494,119.035308 100.350056,119.416515 Z" id="Path" fill="#000000" opacity="0.1"></path>
            <ellipse id="Oval" fill="#3F3D56" cx="92.5" cy="127" rx="8.5" ry="9"></ellipse>
            <ellipse id="Oval" fill="#000000" opacity="0.1" cx="92.5" cy="127" rx="8.5" ry="9"></ellipse>
            <circle id="Oval" fill="#3F3D56" cx="92" cy="127" r="8"></circle>
            <path d="M91.1700895,122.080934 C91.1700895,122.080934 89.1656121,120.690129 87.2522526,122.080934 C86.6581324,122.519319 86.2433572,123.192131 86.0953851,123.957505 C85.8358669,125.200623 86.1123818,126.504881 86.8459385,127.497693 L91.1744901,133.459358 C91.4773613,133.883143 91.9756021,134.081111 92.4575252,133.969152 L92.4858213,133.961994 C92.8315361,133.86924 93.1267352,133.624848 93.3015448,133.286668 L96.3118804,127.522573 C96.8688024,126.472873 97.0970855,125.253981 96.9622041,124.050243 C96.8986116,122.685987 96.0282765,121.525571 94.8145872,121.18683 C94.8145872,121.18683 93.0834295,120.392072 91.1700895,122.080934 Z" id="Path" fill="#000000" opacity="0.1"></path>
            <path d="M91.7000804,121.997773 C91.7000804,121.997773 89.877831,120.713933 88.1384119,121.997773 C87.5983023,122.402437 87.2212341,123.023495 87.0867143,123.729994 C86.8507879,124.877486 87.1021643,126.081414 87.7690334,126.997855 L91.7040818,132.500932 C91.9794168,132.892124 92.432364,133.07487 92.8704795,132.971527 L92.8962041,132.964921 C93.2104891,132.879301 93.4788507,132.653709 93.6377681,132.341544 L96.3744406,127.020843 C96.8807309,126.051889 97.0882595,124.926759 96.9656399,123.815618 C96.9078299,122.556303 96.1166145,121.485149 95.0132584,121.172467 C95.0132584,121.172467 93.4394996,120.438828 91.7000804,121.997773 Z" id="Path" fill="#B7E1FE"></path>
            <path d="M92.3500562,124.416515 C91.8027348,124.109929 91.1165328,124.109929 90.5692114,124.416515 C90.2991567,124.585513 90.1106221,124.844881 90.0433603,125.139931 C89.925392,125.61915 90.0510786,126.12194 90.3845146,126.504668 C90.3845146,126.504668 92.717145,129.044567 92.9352469,128.999405 L92.9481054,128.996648 C93.1052539,128.961749 94.6872192,126.514257 94.6872192,126.514257 C94.9403648,126.1096 95.0441295,125.639721 94.9828202,125.175683 C94.9539174,124.649763 94.5583074,124.202423 94.006626,124.071841 C93.4275454,123.9038 92.795494,124.035308 92.3500562,124.416515 Z" id="Path" fill="#000000" opacity="0.1"></path>
            <path d="M86.1354739,102.831691 C85.9161498,102.454213 85.1500391,102.463955 85.1500391,102.463955 C84.4525187,103.545385 82.7758422,102.396647 82.7758422,102.396647 C81.5305194,102.978011 80.7706874,101.125337 80.7706874,101.125337 C79.0950315,100.863879 79.3539088,99.027503 79.3539088,99.027503 C78.5202383,98.8528462 78.7541609,97.2800424 78.7541609,97.2800424 C78.7541609,97.2800424 79.2167431,96.8841412 78.9891041,96.5945239 C78.8532746,96.2556925 78.8046408,95.8857088 78.8480211,95.5212273 C73.7352585,93.897375 68.2242718,96.1631761 65.5471405,100.989785 C62.8700091,105.816394 63.7324752,111.931427 67.6287203,115.748542 C71.5249653,119.565658 77.427866,120.078594 81.8754933,116.986524 C86.3231207,113.894453 88.1429967,108.012505 86.2678017,102.790319 C86.208747,102.859877 86.1629601,102.878994 86.1354739,102.831691 Z" id="Path" fill="#3F3D56"></path>
            <path d="M86.1354739,102.831691 C85.9161498,102.454213 85.1500391,102.463955 85.1500391,102.463955 C84.4525187,103.545385 82.7758422,102.396647 82.7758422,102.396647 C81.5305194,102.978011 80.7706874,101.125337 80.7706874,101.125337 C79.0950315,100.863879 79.3539088,99.027503 79.3539088,99.027503 C78.5202383,98.8528462 78.7541609,97.2800424 78.7541609,97.2800424 C78.7541609,97.2800424 79.2167431,96.8841412 78.9891041,96.5945239 C78.8532746,96.2556925 78.8046408,95.8857088 78.8480211,95.5212273 C73.7352585,93.897375 68.2242718,96.1631761 65.5471405,100.989785 C62.8700091,105.816394 63.7324752,111.931427 67.6287203,115.748542 C71.5249653,119.565658 77.427866,120.078594 81.8754933,116.986524 C86.3231207,113.894453 88.1429967,108.012505 86.2678017,102.790319 C86.208747,102.859877 86.1629601,102.878994 86.1354739,102.831691 Z" id="Path" fill="#000000" opacity="0.1"></path>
            <path d="M85.1730443,103.505354 C84.9632565,103.143602 84.2304561,103.152939 84.2304561,103.152939 C83.5632492,104.189304 81.9594871,103.088435 81.9594871,103.088435 C80.7683115,103.645572 80.041519,101.87011 80.041519,101.87011 C78.438718,101.619544 78.6863393,99.8596849 78.6863393,99.8596849 C77.8889164,99.6923073 78.1126672,98.1850352 78.1126672,98.1850352 C78.1126672,98.1850352 78.555137,97.8056343 78.3373941,97.5280867 C78.2074801,97.2033709 78.1609673,96.8488048 78.2024633,96.4995122 C73.3119941,94.9433158 68.0406121,97.1147063 65.4798753,101.740208 C62.9191386,106.365709 63.7441059,112.225951 67.4709508,115.884021 C71.1977957,119.542091 76.8440511,120.033653 81.0983033,117.070415 C85.3525555,114.107177 87.0933028,108.470306 85.2996324,103.465711 C85.2431312,103.532345 85.199335,103.550668 85.1730443,103.505354 Z" id="Path" fill="#3F3D56"></path>
            <path d="M73.7000726,101.997768 C73.7000726,101.997768 71.8778256,100.713927 70.1384042,101.997768 C69.5982985,102.402432 69.2212345,103.02349 69.0867186,103.729987 C68.8507848,104.877486 69.1021603,106.081425 69.769034,106.997873 L73.7040823,112.500948 C73.9794221,112.892134 74.4323697,113.074872 74.8704823,112.971524 L74.896202,112.964919 C75.2104869,112.879298 75.478849,112.653708 75.6377684,112.341544 L78.3744409,107.020839 C78.8807297,106.051883 79.0882584,104.926753 78.9656408,103.81561 C78.9078321,102.556294 78.116616,101.485139 77.0132592,101.172458 C77.0132592,101.172458 75.4394892,100.438842 73.7000726,101.997768 Z" id="Path" fill="#B7E1FE"></path>
            <path d="M73.7000726,101.997768 C73.7000726,101.997768 71.8778256,100.713927 70.1384042,101.997768 C69.5982985,102.402432 69.2212345,103.02349 69.0867186,103.729987 C68.8507848,104.877486 69.1021603,106.081425 69.769034,106.997873 L73.7040823,112.500948 C73.9794221,112.892134 74.4323697,113.074872 74.8704823,112.971524 L74.896202,112.964919 C75.2104869,112.879298 75.478849,112.653708 75.6377684,112.341544 L78.3744409,107.020839 C78.8807297,106.051883 79.0882584,104.926753 78.9656408,103.81561 C78.9078321,102.556294 78.116616,101.485139 77.0132592,101.172458 C77.0132592,101.172458 75.4394892,100.438842 73.7000726,101.997768 Z" id="Path" fill="#000000" opacity="0.1"></path>
            <path d="M73.7000659,102.914636 C73.7000659,102.914636 71.8778186,101.737781 70.1384061,102.914636 C69.5982981,103.285577 69.2212319,103.854881 69.0867156,104.502505 C68.8507873,105.554373 69.1021623,106.657976 69.7690303,107.498047 L73.7040622,112.542532 C73.9794006,112.90112 74.4323471,113.068632 74.8704597,112.973898 L74.8962088,112.96784 C75.2104973,112.889359 75.478863,112.682566 75.6377824,112.396412 L78.3744415,107.519099 C78.8807302,106.63089 79.0882587,105.599521 78.9656405,104.580974 C78.9078287,103.426603 78.1166148,102.444712 77.0132625,102.158089 C77.0132625,102.158089 75.4394784,101.485597 73.7000659,102.914636 Z" id="Path" fill="#B7E1FE"></path>
            <path d="M74.3500526,105.416518 C73.8027328,105.10993 73.1165314,105.10993 72.5692116,105.416518 C72.2991536,105.585513 72.1106172,105.844882 72.0433574,106.139933 C71.9253933,106.619152 72.0510829,107.12194 72.3845204,107.504665 C72.3845204,107.504665 74.7171539,110.044567 74.9352512,109.999405 L74.9481119,109.996645 C75.5741855,109.197764 76.1546787,108.369172 76.6872164,107.514257 C76.9403617,107.1096 77.0441279,106.639722 76.9828218,106.175684 C76.9539048,105.649768 76.5583004,105.202434 76.0066264,105.071839 C75.4275435,104.903801 74.7954915,105.03531 74.3500526,105.416518 L74.3500526,105.416518 Z" id="Path" fill="#000000" opacity="0.1"></path>
            <polyline id="Path" fill="#000000" opacity="0.1" points="69 110 69.166494 110.350785 69.4998273 111.052356 69.6110535 111.54363 69.388601 111.96466 69.6666667 112.806719 69.7775475 113.297993 69.5554404 113.57897 70 114"></polyline>
            <polyline id="Path" fill="#000000" opacity="0.1" points="80.4445596 106 80.4445596 106.508043 80.1668394 107.333465 80 107.777558 80.2777202 108.349156 80.3889465 108.73009 80.833506 108.920359 81 109.238133 81 110"></polyline>
            <path d="M84,106 L83.3333351,106.312499 C83.3333351,106.312499 83,106.4375 83,106.5 L83,107" id="Path" fill="#000000" opacity="0.1"></path>
            <polyline id="Path" fill="#000000" opacity="0.1" points="80.9839 103 81.0161 103.588149 80.9839 104"></polyline>
            <polyline id="Path" fill="#000000" opacity="0.1" points="83 111 82.5384983 111.749741 82 112.249741 82 112.58342 82.3079866 113 82.3079866 113.5 82.0769967 114"></polyline>
            <polyline id="Path" fill="#000000" opacity="0.1" points="78 98 77.4445596 98 77 98.4000711 76.2777202 98.8001421 75.9443869 99.0858056 75.9443869 99.2002132 75.2221071 99.5999289 75 100"></polyline>
            <path d="M69,99 L68.4545403,100.26316 L68.2727242,100.754387 L67.8484778,101.385965 C67.8484778,101.385965 67.5454484,102.017547 67.4848531,102.087723 C67.3299793,102.17718 67.1674866,102.247734 67,102.298246 L67.6060663,103" id="Path" fill="#000000" opacity="0.1"></path>
            <polyline id="Path" fill="#000000" opacity="0.1" points="65.4615017 105 65.3075084 105.844166 65.4615017 106.363746 65.4615017 107.272911 65 108.96084 65.4615017 109.415422 66 110"></polyline>
            <polyline id="Path" fill="#000000" opacity="0.1" points="68 104 68.272753 104.142984 68.4544941 104.761989 68.8182589 104.666667 69 105"></polyline>
            <polyline id="Path" fill="#000000" opacity="0.1" points="76 116 76.96948 115.778162 77.3937453 115 78 115"></polyline>
            <polyline id="Path" fill="#000000" opacity="0.1" points="68 114 68.4799801 114.608813 69.2797811 114.869424 69.8398408 115.043525 70 116"></polyline>
            <polyline id="Path" fill="#000000" opacity="0.1" points="78 112 78.3684555 111.58342 78.526178 110.91658 78.8419503 110.833161 79 110"></polyline>
            <path d="M51.5021459,131.075583 L50.0600858,135.174978 C50.0600858,135.174978 49.0987124,148.498013 54.8669528,147.985589 C60.6351931,147.473164 64,139.786798 64,139.786798 C64,139.786798 60.6351931,130.050734 56.7896996,131.075583 C52.944206,132.100431 51.5021459,131.075583 51.5021459,131.075583 Z" id="Path" fill="#FF6584"></path>
            <path d="M56.1594761,133.728863 C56.1594761,133.728863 53.252734,143 56.6439331,143 C60.0351322,143 66.3330734,137.334305 66.8175305,132.698736 C67.3019875,128.063167 76.0222138,110.551019 69.7242726,112.096208 C63.4263313,113.641398 60.5195892,126.517978 60.5195892,126.517978 L56.1594761,133.728863 Z" id="Path" fill="#FBBEBE"></path>
            <path d="M127.834919,134.890215 L130.892658,140.496587 C130.892658,140.496587 132.240022,151 125.38764,151 C118.535257,151 108.746139,140.797136 108.746139,140.797136 C108.746139,140.797136 103.85158,138.649165 100.914845,139.186158 C97.9781095,139.72315 81.826065,139.186158 88.6784475,130.057279 C95.53083,120.928401 107.277771,130.057279 107.277771,130.057279 L119.514169,136.501193 L125.877095,132.742243 L127.834919,134.890215 Z" id="Path" fill="#FBBEBE"></path>
            <path d="M123.149931,127.054782 L118,135.493035 C118,135.493035 129.844842,137.075207 130.874828,139.712161 C131.904814,142.349116 126.23989,126 126.23989,126 L123.149931,127.054782 Z" id="Path" fill="#FF6584"></path>
        </g>
    </g>
</svg>